<mxfile host="65bd71144e" modified="2021-11-08T01:16:41.060Z" agent="5.0 (Windows NT 10.0; Win64; x64) AppleWebKit/537.36 (KHTML, like Gecko) Code/1.62.0 Chrome/91.0.4472.164 Electron/13.5.1 Safari/537.36" etag="_EPuO0xHncxHe-CzT7wC" version="15.6.8" type="embed">
    <diagram name="ベンチマーク" id="rgbgES4tJEKVGF54ZIPd">
        <mxGraphModel dx="747" dy="437" grid="1" gridSize="10" guides="0" tooltips="1" connect="0" arrows="0" fold="1" page="1" pageScale="1" pageWidth="827" pageHeight="1169" math="0" shadow="1">
            <root>
                <mxCell id="jopfzJTQR7Z_EkR9QJMv-0"/>
                <object label="背景" id="jopfzJTQR7Z_EkR9QJMv-1">
                    <mxCell style="" parent="jopfzJTQR7Z_EkR9QJMv-0"/>
                </object>
                <mxCell id="jopfzJTQR7Z_EkR9QJMv-2" value="" style="rounded=0;whiteSpace=wrap;html=1;shadow=1;" parent="jopfzJTQR7Z_EkR9QJMv-1" vertex="1">
                    <mxGeometry x="80" y="60" width="390" height="230" as="geometry"/>
                </mxCell>
                <mxCell id="56" value="" style="rounded=0;whiteSpace=wrap;html=1;" parent="jopfzJTQR7Z_EkR9QJMv-1" vertex="1">
                    <mxGeometry x="110" y="230" width="140" height="30" as="geometry"/>
                </mxCell>
                <mxCell id="57" value="" style="rounded=0;whiteSpace=wrap;html=1;" parent="jopfzJTQR7Z_EkR9QJMv-1" vertex="1">
                    <mxGeometry x="290" y="230" width="140" height="30" as="geometry"/>
                </mxCell>
                <object label="パーツ" id="jopfzJTQR7Z_EkR9QJMv-3">
                    <mxCell style="" parent="jopfzJTQR7Z_EkR9QJMv-0"/>
                </object>
                <mxCell id="jopfzJTQR7Z_EkR9QJMv-4" value="ベンチマーク検索" style="text;html=1;strokeColor=none;fillColor=none;align=center;verticalAlign=middle;whiteSpace=wrap;rounded=0;" parent="jopfzJTQR7Z_EkR9QJMv-3" vertex="1">
                    <mxGeometry x="220" y="70" width="110" height="30" as="geometry"/>
                </mxCell>
                <mxCell id="26" value="" style="rounded=0;whiteSpace=wrap;html=1;" parent="jopfzJTQR7Z_EkR9QJMv-3" vertex="1">
                    <mxGeometry x="110" y="170" width="140" height="30" as="geometry"/>
                </mxCell>
                <mxCell id="27" value="CPU１" style="text;html=1;strokeColor=none;fillColor=none;align=center;verticalAlign=middle;whiteSpace=wrap;rounded=0;" parent="jopfzJTQR7Z_EkR9QJMv-3" vertex="1">
                    <mxGeometry x="160" y="140" width="40" height="30" as="geometry"/>
                </mxCell>
                <mxCell id="29" value="" style="rounded=0;whiteSpace=wrap;html=1;" parent="jopfzJTQR7Z_EkR9QJMv-3" vertex="1">
                    <mxGeometry x="290" y="170" width="140" height="30" as="geometry"/>
                </mxCell>
                <mxCell id="31" value="▼" style="rounded=0;whiteSpace=wrap;html=1;" parent="jopfzJTQR7Z_EkR9QJMv-3" vertex="1">
                    <mxGeometry x="230" y="170" width="20" height="30" as="geometry"/>
                </mxCell>
                <mxCell id="32" value="▼" style="rounded=0;whiteSpace=wrap;html=1;" parent="jopfzJTQR7Z_EkR9QJMv-3" vertex="1">
                    <mxGeometry x="410" y="170" width="20" height="30" as="geometry"/>
                </mxCell>
                <mxCell id="53" value="CPU２" style="text;html=1;strokeColor=none;fillColor=none;align=center;verticalAlign=middle;whiteSpace=wrap;rounded=0;" parent="jopfzJTQR7Z_EkR9QJMv-3" vertex="1">
                    <mxGeometry x="330" y="140" width="50" height="30" as="geometry"/>
                </mxCell>
                <mxCell id="54" value="CPU&lt;span style=&quot;color: rgba(0 , 0 , 0 , 0) ; font-family: monospace ; font-size: 0px&quot;&gt;%3CmxGraphModel%3E%3Croot%3E%3CmxCell%20id%3D%220%22%2F%3E%3CmxCell%20id%3D%221%22%20parent%3D%220%22%2F%3E%3CmxCell%20id%3D%222%22%20value%3D%22CPU%EF%BC%91%22%20style%3D%22text%3Bhtml%3D1%3BstrokeColor%3Dnone%3BfillColor%3Dnone%3Balign%3Dcenter%3BverticalAlign%3Dmiddle%3BwhiteSpace%3Dwrap%3Brounded%3D0%3B%22%20vertex%3D%221%22%20parent%3D%221%22%3E%3CmxGeometry%20x%3D%22190%22%20y%3D%22110%22%20width%3D%2240%22%20height%3D%2230%22%20as%3D%22geometry%22%2F%3E%3C%2FmxCell%3E%3C%2Froot%3E%3C%2FmxGraphModel%3E&lt;/span&gt;" style="rounded=0;whiteSpace=wrap;html=1;" parent="jopfzJTQR7Z_EkR9QJMv-3" vertex="1">
                    <mxGeometry x="210" y="100" width="60" height="30" as="geometry"/>
                </mxCell>
                <mxCell id="55" value="GPU&lt;span style=&quot;color: rgba(0 , 0 , 0 , 0) ; font-family: monospace ; font-size: 0px&quot;&gt;%3CmxGraphModel%3E%3Croot%3E%3CmxCell%20id%3D%220%22%2F%3E%3CmxCell%20id%3D%221%22%20parent%3D%220%22%2F%3E%3CmxCell%20id%3D%222%22%20value%3D%22CPU%EF%BC%91%22%20style%3D%22text%3Bhtml%3D1%3BstrokeColor%3Dnone%3BfillColor%3Dnone%3Balign%3Dcenter%3BverticalAlign%3Dmiddle%3BwhiteSpace%3Dwrap%3Brounded%3D0%3B%22%20vertex%3D%221%22%20parent%3D%221%22%3E%3CmxGeometry%20x%3D%22190%22%20y%3D%22110%22%20width%3D%2240%22%20height%3D%2230%22%20as%3D%22geometry%22%2F%3E%3C%2FmxCell%3E%3C%2Froot%3E%3C%2FmxGraphModel%3E&lt;/span&gt;" style="rounded=0;whiteSpace=wrap;html=1;" parent="jopfzJTQR7Z_EkR9QJMv-3" vertex="1">
                    <mxGeometry x="270" y="100" width="60" height="30" as="geometry"/>
                </mxCell>
                <object label="矢印" id="jopfzJTQR7Z_EkR9QJMv-74">
                    <mxCell style="" parent="jopfzJTQR7Z_EkR9QJMv-0"/>
                </object>
                <mxCell id="jopfzJTQR7Z_EkR9QJMv-75" value="①" style="whiteSpace=wrap;html=1;aspect=fixed;shadow=1;" parent="jopfzJTQR7Z_EkR9QJMv-74" vertex="1">
                    <mxGeometry x="250" y="20" width="20" height="20" as="geometry"/>
                </mxCell>
                <mxCell id="jopfzJTQR7Z_EkR9QJMv-83" value="" style="endArrow=none;html=1;rounded=0;entryX=0.411;entryY=1.094;entryDx=0;entryDy=0;entryPerimeter=0;exitX=0.455;exitY=0;exitDx=0;exitDy=0;exitPerimeter=0;" parent="jopfzJTQR7Z_EkR9QJMv-74" source="jopfzJTQR7Z_EkR9QJMv-4" target="jopfzJTQR7Z_EkR9QJMv-75" edge="1">
                    <mxGeometry width="50" height="50" relative="1" as="geometry">
                        <mxPoint x="287.5" y="60" as="sourcePoint"/>
                        <mxPoint x="200" y="20" as="targetPoint"/>
                    </mxGeometry>
                </mxCell>
                <mxCell id="58" value="②" style="whiteSpace=wrap;html=1;aspect=fixed;shadow=1;" parent="jopfzJTQR7Z_EkR9QJMv-74" vertex="1">
                    <mxGeometry x="30" y="100" width="20" height="20" as="geometry"/>
                </mxCell>
                <mxCell id="59" value="" style="endArrow=none;html=1;rounded=0;entryX=0.989;entryY=0.689;entryDx=0;entryDy=0;entryPerimeter=0;exitX=-0.031;exitY=0.496;exitDx=0;exitDy=0;exitPerimeter=0;" parent="jopfzJTQR7Z_EkR9QJMv-74" source="54" target="58" edge="1">
                    <mxGeometry width="50" height="50" relative="1" as="geometry">
                        <mxPoint x="280.04999999999995" y="80" as="sourcePoint"/>
                        <mxPoint x="268.22" y="41.88000000000005" as="targetPoint"/>
                    </mxGeometry>
                </mxCell>
                <mxCell id="60" value="③" style="whiteSpace=wrap;html=1;aspect=fixed;shadow=1;" parent="jopfzJTQR7Z_EkR9QJMv-74" vertex="1">
                    <mxGeometry x="510" y="100" width="20" height="20" as="geometry"/>
                </mxCell>
                <mxCell id="61" value="" style="endArrow=none;html=1;rounded=0;entryX=-0.178;entryY=0.578;entryDx=0;entryDy=0;entryPerimeter=0;exitX=1.033;exitY=0.57;exitDx=0;exitDy=0;exitPerimeter=0;" parent="jopfzJTQR7Z_EkR9QJMv-74" source="55" target="60" edge="1">
                    <mxGeometry width="50" height="50" relative="1" as="geometry">
                        <mxPoint x="215.86" y="125.98999999999995" as="sourcePoint"/>
                        <mxPoint x="59.780000000000086" y="123.77999999999992" as="targetPoint"/>
                    </mxGeometry>
                </mxCell>
                <mxCell id="62" value="④" style="whiteSpace=wrap;html=1;aspect=fixed;shadow=1;" parent="jopfzJTQR7Z_EkR9QJMv-74" vertex="1">
                    <mxGeometry x="30" y="140" width="20" height="20" as="geometry"/>
                </mxCell>
                <mxCell id="63" value="" style="endArrow=none;html=1;rounded=0;entryX=0.961;entryY=0.411;entryDx=0;entryDy=0;entryPerimeter=0;exitX=-0.061;exitY=0.441;exitDx=0;exitDy=0;exitPerimeter=0;" parent="jopfzJTQR7Z_EkR9QJMv-74" source="27" target="62" edge="1">
                    <mxGeometry width="50" height="50" relative="1" as="geometry">
                        <mxPoint x="218.14" y="124.88" as="sourcePoint"/>
                        <mxPoint x="59.780000000000086" y="123.77999999999992" as="targetPoint"/>
                    </mxGeometry>
                </mxCell>
                <mxCell id="64" value="⑤" style="whiteSpace=wrap;html=1;aspect=fixed;shadow=1;" parent="jopfzJTQR7Z_EkR9QJMv-74" vertex="1">
                    <mxGeometry x="510" y="140" width="20" height="20" as="geometry"/>
                </mxCell>
                <mxCell id="65" value="" style="endArrow=none;html=1;rounded=0;entryX=0;entryY=0.5;entryDx=0;entryDy=0;entryPerimeter=0;" parent="jopfzJTQR7Z_EkR9QJMv-74" source="53" target="64" edge="1">
                    <mxGeometry width="50" height="50" relative="1" as="geometry">
                        <mxPoint x="341.9799999999999" y="127.09999999999997" as="sourcePoint"/>
                        <mxPoint x="516.44" y="121.55999999999995" as="targetPoint"/>
                    </mxGeometry>
                </mxCell>
                <mxCell id="66" value="⑥" style="whiteSpace=wrap;html=1;aspect=fixed;shadow=1;" parent="jopfzJTQR7Z_EkR9QJMv-74" vertex="1">
                    <mxGeometry x="30" y="180" width="20" height="20" as="geometry"/>
                </mxCell>
                <mxCell id="67" value="" style="endArrow=none;html=1;rounded=0;entryX=1.1;entryY=0.494;entryDx=0;entryDy=0;entryPerimeter=0;exitX=-0.013;exitY=0.478;exitDx=0;exitDy=0;exitPerimeter=0;" parent="jopfzJTQR7Z_EkR9QJMv-74" source="26" target="66" edge="1">
                    <mxGeometry width="50" height="50" relative="1" as="geometry">
                        <mxPoint x="167.55999999999995" y="163.23000000000002" as="sourcePoint"/>
                        <mxPoint x="59.22000000000003" y="158.22000000000003" as="targetPoint"/>
                    </mxGeometry>
                </mxCell>
                <mxCell id="68" value="⑦" style="whiteSpace=wrap;html=1;aspect=fixed;shadow=1;" parent="jopfzJTQR7Z_EkR9QJMv-74" vertex="1">
                    <mxGeometry x="510" y="180" width="20" height="20" as="geometry"/>
                </mxCell>
                <mxCell id="69" value="" style="endArrow=none;html=1;rounded=0;entryX=-0.15;entryY=0.411;entryDx=0;entryDy=0;entryPerimeter=0;exitX=1.128;exitY=0.515;exitDx=0;exitDy=0;exitPerimeter=0;" parent="jopfzJTQR7Z_EkR9QJMv-74" source="32" target="68" edge="1">
                    <mxGeometry width="50" height="50" relative="1" as="geometry">
                        <mxPoint x="390" y="164.1935483870967" as="sourcePoint"/>
                        <mxPoint x="520" y="160" as="targetPoint"/>
                    </mxGeometry>
                </mxCell>
                <mxCell id="70" value="⑧" style="whiteSpace=wrap;html=1;aspect=fixed;shadow=1;" parent="jopfzJTQR7Z_EkR9QJMv-74" vertex="1">
                    <mxGeometry x="30" y="240" width="20" height="20" as="geometry"/>
                </mxCell>
                <mxCell id="71" value="" style="endArrow=none;html=1;rounded=0;entryX=0.989;entryY=0.439;entryDx=0;entryDy=0;entryPerimeter=0;exitX=-0.01;exitY=0.515;exitDx=0;exitDy=0;exitPerimeter=0;" parent="jopfzJTQR7Z_EkR9QJMv-74" source="56" target="70" edge="1">
                    <mxGeometry width="50" height="50" relative="1" as="geometry">
                        <mxPoint x="118.18000000000006" y="194.33999999999992" as="sourcePoint"/>
                        <mxPoint x="62" y="199.88" as="targetPoint"/>
                    </mxGeometry>
                </mxCell>
                <mxCell id="72" value="⑨" style="whiteSpace=wrap;html=1;aspect=fixed;shadow=1;" parent="jopfzJTQR7Z_EkR9QJMv-74" vertex="1">
                    <mxGeometry x="510" y="240" width="20" height="20" as="geometry"/>
                </mxCell>
                <mxCell id="73" value="" style="endArrow=none;html=1;rounded=0;entryX=-0.178;entryY=0.439;entryDx=0;entryDy=0;entryPerimeter=0;exitX=1.01;exitY=0.478;exitDx=0;exitDy=0;exitPerimeter=0;" parent="jopfzJTQR7Z_EkR9QJMv-74" source="57" target="72" edge="1">
                    <mxGeometry width="50" height="50" relative="1" as="geometry">
                        <mxPoint x="442.55999999999995" y="195.44999999999993" as="sourcePoint"/>
                        <mxPoint x="517" y="198.22000000000003" as="targetPoint"/>
                    </mxGeometry>
                </mxCell>
            </root>
        </mxGraphModel>
    </diagram>
</mxfile>